<svg xmlns="http://www.w3.org/2000/svg" viewBox="0 0 900 600"><rect width="900" height="600" rx="42" fill="#e6efff"/><rect y="390" width="900" height="210" fill="#f1d8b7"/><rect x="60" y="55" width="230" height="190" rx="22" fill="#9fdff5" stroke="#fff" stroke-width="16"/><rect x="610" y="70" width="210" height="120" rx="18" fill="#c99162"/><circle cx="450" cy="305" r="135" fill="#fff5df"/><path d="M450 185c66 0 115 52 115 120s-49 120-115 120-115-52-115-120 49-120 115-120z" fill="#a692ff"/><circle cx="410" cy="275" r="15" fill="#26324a"/><circle cx="490" cy="275" r="15" fill="#26324a"/><path d="M420 325q30 25 60 0" fill="none" stroke="#26324a" stroke-width="9"/><rect x="125" y="425" width="150" height="70" rx="20" fill="#ff9fbe"/><circle cx="700" cy="450" r="46" fill="#73dfc0"/><path d="M700 402v96M652 450h96" stroke="#fff" stroke-width="9"/><path d="M450 185v-45" stroke="#71809f" stroke-width="9"/><circle cx="450" cy="126" r="14" fill="#ffd85a"/></svg>